<svg width="45" height="46" viewBox="0 0 45 46" fill="none" xmlns="http://www.w3.org/2000/svg">
<g clip-path="url(#clip0_13647_27267)">
<path d="M11.25 27.6875H2.8125V3.3125H42.1875V27.6875H33.75M32.8125 45.5C32.8125 41.8222 33.8331 38.2166 35.7606 35.0844L36.5625 33.7813V33.3125H8.4375V33.7813L9.23946 35.0844C11.167 38.2166 12.1875 41.8222 12.1875 45.5M30 28.625V22.0623C30 22.0623 27.1875 20.1873 22.5 20.1873C17.8125 20.1873 15 22.0625 15 22.0625V28.625M22.2188 16.4375C22.2188 16.4375 19.2188 14.5625 19.2188 12.2188C19.2188 10.4066 20.6878 8.9375 22.5 8.9375C24.3122 8.9375 25.7732 10.4066 25.7732 12.2188C25.7732 14.5625 22.7813 16.4375 22.7813 16.4375H22.2188Z" stroke="#0059FF" stroke-width="2.64538"/>
</g>
<defs>
<clipPath id="clip0_13647_27267">
<rect width="45" height="45" fill="white" transform="translate(0 0.5)"/>
</clipPath>
</defs>
</svg>
