<svg width="45" height="46" viewBox="0 0 45 46" fill="none" xmlns="http://www.w3.org/2000/svg">
<g clip-path="url(#clip0_13647_27264)">
<path d="M26.2502 45.5V33.3123C26.2502 31.2414 27.9291 29.5625 30 29.5625V14.5623C30 14.5623 27.1875 12.6874 22.5 12.6874C17.8125 12.6874 15 14.5625 15 14.5625V29.5625C17.0712 29.5625 18.7502 31.2416 18.7502 33.3127V45.4998M6.56271 45.4996V33.3127C6.56271 31.2416 4.8837 29.5625 2.8125 29.5625V14.5624C2.8125 14.5624 5.625 12.6873 10.3125 12.6873M38.4377 45.5V33.3123C38.4377 31.2414 40.1166 29.5625 42.1875 29.5625V14.5623C42.1875 14.5623 39.375 12.6874 34.6875 12.6874M22.2188 8.9375C22.2188 8.9375 19.2188 7.0625 19.2188 4.71875C19.2188 2.90656 20.6878 1.4375 22.5 1.4375C24.3122 1.4375 25.7732 2.90656 25.7732 4.71875C25.7732 7.0625 22.7813 8.9375 22.7813 8.9375H22.2188ZM10.0313 8.9375C10.0313 8.9375 7.03125 7.0625 7.03125 4.71875C7.03125 2.90656 8.50031 1.4375 10.3125 1.4375C12.1247 1.4375 13.5857 2.90656 13.5857 4.71875C13.5857 7.0625 10.5938 8.9375 10.5938 8.9375H10.0313ZM34.4063 8.9375C34.4063 8.9375 31.4063 7.0625 31.4063 4.71875C31.4063 2.90656 32.8753 1.4375 34.6875 1.4375C36.4997 1.4375 37.9607 2.90656 37.9607 4.71875C37.9607 7.0625 34.9688 8.9375 34.9688 8.9375H34.4063Z" stroke="#0059FF" stroke-width="2.64538"/>
</g>
<defs>
<clipPath id="clip0_13647_27264">
<rect width="45" height="45" fill="white" transform="translate(0 0.5)"/>
</clipPath>
</defs>
</svg>
